<?xml version="1.0" encoding="UTF-8" standalone="no"?>
<svg
   version="1.1"
   viewBox="0 0 824.4 724.2"
   xmlns="http://www.w3.org/2000/svg">
<style type="text/css">
	.st0{fill:#FFFFFF;}
</style>
<g fill="#FFFFFF">
  <polygon points="167,382.2 0,382.2 113.8,579.4 280.8,579.4" />
  <polygon points="197.3,724.1 113.8,579.4 531.9,579.4 448.4,724.1" />
  <polygon points="406.4,362 239.4,362 425,40.4 508.5,185" />
  <polygon points="615.4,0 448.4,0 638.7,329.6 722.2,185" />
  <polygon points="620.1,362 453.1,362 638.7,40.4 722.2,185" />
  <polygon points="615.4,724.1 448.4,724.1 638.7,394.4 722.2,539" />
  <polygon points="620.1,362 453.1,362 638.7,683.6 722.2,539" />
  <polygon points="197.3,0 113.8,144.6 485.2,144.6 401.7,0" />
  <polygon points="167,341.8 0,341.8 197.3,0 280.8,144.6" />
  <polygon points="666.8,362 745.6,498.5 824.4,362 745.6,225.5" />
  <polygon points="508.5,539 406.4,362 239.4,362 341.5,539 508.5,539" />
</g>
</svg>