<?xml version="1.0" encoding="UTF-8" standalone="no"?>
<svg
   version="1.1"
   viewBox="0 0 824.4 724.2"
   id="svg11"
   sodipodi:docname="beedle_logo-black.svg"
   inkscape:version="1.3.2 (091e20e, 2023-11-25)"
   xmlns:inkscape="http://www.inkscape.org/namespaces/inkscape"
   xmlns:sodipodi="http://sodipodi.sourceforge.net/DTD/sodipodi-0.dtd"
   xmlns="http://www.w3.org/2000/svg"
   xmlns:svg="http://www.w3.org/2000/svg">
  <defs
     id="defs11" />
  <sodipodi:namedview
     id="namedview11"
     pagecolor="#ffffff"
     bordercolor="#000000"
     borderopacity="0.25"
     inkscape:showpageshadow="2"
     inkscape:pageopacity="0.0"
     inkscape:pagecheckerboard="0"
     inkscape:deskcolor="#d1d1d1"
     inkscape:zoom="0.28087285"
     inkscape:cx="274.1454"
     inkscape:cy="274.1454"
     inkscape:window-width="1728"
     inkscape:window-height="1053"
     inkscape:window-x="0"
     inkscape:window-y="36"
     inkscape:window-maximized="0"
     inkscape:current-layer="svg11" />
  <style
     type="text/css"
     id="style1">
	.st0{fill:#FFFFFF;}
</style>
  <g
     fill="#FFFFFF"
     id="g11"
     style="fill:#000000;fill-opacity:1;stroke:#000000;stroke-opacity:1">
    <polygon
       points="167,382.2 0,382.2 113.8,579.4 280.8,579.4"
       id="polygon1"
       style="fill:#000000;fill-opacity:1;stroke:#000000;stroke-opacity:1" />
    <polygon
       points="197.3,724.1 113.8,579.4 531.9,579.4 448.4,724.1"
       id="polygon2"
       style="fill:#000000;fill-opacity:1;stroke:#000000;stroke-opacity:1" />
    <polygon
       points="406.4,362 239.4,362 425,40.4 508.5,185"
       id="polygon3"
       style="fill:#000000;fill-opacity:1;stroke:#000000;stroke-opacity:1" />
    <polygon
       points="615.4,0 448.4,0 638.7,329.6 722.2,185"
       id="polygon4"
       style="fill:#000000;fill-opacity:1;stroke:#000000;stroke-opacity:1" />
    <polygon
       points="620.1,362 453.1,362 638.7,40.4 722.2,185"
       id="polygon5"
       style="fill:#000000;fill-opacity:1;stroke:#000000;stroke-opacity:1" />
    <polygon
       points="615.4,724.1 448.4,724.1 638.7,394.4 722.2,539"
       id="polygon6"
       style="fill:#000000;fill-opacity:1;stroke:#000000;stroke-opacity:1" />
    <polygon
       points="620.1,362 453.1,362 638.7,683.6 722.2,539"
       id="polygon7"
       style="fill:#000000;fill-opacity:1;stroke:#000000;stroke-opacity:1" />
    <polygon
       points="197.3,0 113.8,144.6 485.2,144.6 401.7,0"
       id="polygon8"
       style="fill:#000000;fill-opacity:1;stroke:#000000;stroke-opacity:1" />
    <polygon
       points="167,341.8 0,341.8 197.3,0 280.8,144.6"
       id="polygon9"
       style="fill:#000000;fill-opacity:1;stroke:#000000;stroke-opacity:1" />
    <polygon
       points="666.8,362 745.6,498.5 824.4,362 745.6,225.5"
       id="polygon10"
       style="fill:#000000;fill-opacity:1;stroke:#000000;stroke-opacity:1" />
    <polygon
       points="508.5,539 406.4,362 239.4,362 341.5,539 508.5,539"
       id="polygon11"
       style="fill:#000000;fill-opacity:1;stroke:#000000;stroke-opacity:1" />
  </g>
</svg>
